<svg xmlns="http://www.w3.org/2000/svg" width="25" height="28" fill="none">
  <path fill="#495567" fill-rule="evenodd" d="M13.55 2.23A6.39 6.39 0 0 1 17.68 0a5.96 5.96 0 0 1-1.31 4.4 5.4 5.4 0 0 1-4.17 2.13c-.3-1.58.45-3.2 1.35-4.3Zm4.47 4.3a7.22 7.22 0 0 1 5.42 2.85c-4.76 2.59-4 9.35.83 11.16a20.1 20.1 0 0 1-1.84 3.4c-1.19 1.8-2.87 4.04-4.95 4.06-.86 0-1.42-.25-2.02-.53a5.93 5.93 0 0 0-2.81-.65c-1.34 0-2.12.34-2.83.66-.62.27-1.2.53-2.06.52-2.08-.02-3.67-2.04-4.86-3.84-3.33-5.04-3.68-10.94-1.63-14.09C2.74 7.84 5.04 6.54 7.2 6.54c1.16 0 2.09.33 2.97.64.81.28 1.58.56 2.45.56a6 6 0 0 0 2.19-.52c.86-.33 1.82-.69 3.2-.69Z" clip-rule="evenodd"/>
</svg>